<svg xmlns="http://www.w3.org/2000/svg" width="16rem"  viewBox="0 0 16 16"><path style="line-height:normal;text-indent:0;text-align:start;text-decoration-line:none;text-decoration-style:solid;text-decoration-color:#000;text-transform:none;block-progression:tb;white-space:normal;isolation:auto;mix-blend-mode:normal;solid-color:#000;solid-opacity:1" d="M 8 0.5 C 7.1775043 0.5 6.5 1.1775 6.5 2 L 5.5 2 A 0.50005 0.50005 0 0 0 5 2.5 L 5 3 L 3.5 3 A 0.50005 0.50005 0 0 0 3 3.5 L 3 14.5 A 0.50005 0.50005 0 0 0 3.5 15 L 12.5 15 A 0.50005 0.50005 0 0 0 13 14.5 L 13 3.5 A 0.50005 0.50005 0 0 0 12.5 3 L 11 3 L 11 2.5 A 0.50005 0.50005 0 0 0 10.5 2 L 9.5 2 C 9.5 1.1775 8.8224957 0.5 8 0.5 z M 8 1.5 C 8.2820743 1.5 8.5 1.7179 8.5 2 L 8.5 2.5 A 0.50005 0.50005 0 0 0 9 3 L 10 3 L 10 4 L 6 4 L 6 3 L 7 3 A 0.50005 0.50005 0 0 0 7.5 2.5 L 7.5 2 C 7.5 1.7179 7.7179257 1.5 8 1.5 z M 4 4 L 5 4 L 5 4.5 A 0.50005 0.50005 0 0 0 5.5 5 L 10.5 5 A 0.50005 0.50005 0 0 0 11 4.5 L 11 4 L 12 4 L 12 14 L 4 14 L 4 4 z M 5 6 L 5 7 L 11 7 L 11 6 L 5 6 z M 5 8 L 5 9 L 11 9 L 11 8 L 5 8 z M 5 10 L 5 11 L 11 11 L 11 10 L 5 10 z M 5 12 L 5 13 L 11 13 L 11 12 L 5 12 z " color="#fff"  fill="#fff"
enable-background="accumulate" font-family="sans-serif" font-weight="200" overflow="hidden"/></svg>